<svg width="25" height="24" viewBox="0 0 25 24" fill="none" xmlns="http://www.w3.org/2000/svg">
<g clip-path="url(#clip0_3996_9247)">
<mask id="mask0_3996_9247" style="mask-type:luminance" maskUnits="userSpaceOnUse" x="0" y="0" width="25" height="24">
<path d="M24.7755 0H0.154297V24H24.7755V0Z" fill="white"/>
</mask>
<g mask="url(#mask0_3996_9247)">
<path d="M12.4641 1.85762C12.0802 0.909769 11.1451 -0.113903 9.39393 0.0267048C7.16306 0.266576 6.46787 2.38107 6.80496 3.64255C5.91647 3.04749 4.40564 2.7858 3.08689 3.90304C1.38425 5.59114 2.29498 7.87406 3.23097 8.42167C2.19939 8.32718 0.569073 9.01661 0.208384 10.82C-0.17531 13.0591 1.55051 14.3644 3.23097 14.3644H21.8657C23.809 14.3644 24.8872 12.7017 24.7663 11.1336C24.5756 9.08711 22.6821 8.3019 21.6493 8.47013C22.5122 7.99399 23.6648 5.75715 21.9123 3.99874C20.5212 2.6901 18.7478 3.1662 18.1243 3.737C18.4604 2.64378 17.9093 0.383959 15.653 0.0264902C15.4972 0.00923077 15.347 0 15.2039 0C13.4815 0.000171735 12.7071 1.24538 12.4641 1.85762Z" fill="white"/>
<path d="M3.39654 4.2594C2.41267 5.14027 2.05459 7.13617 3.82815 8.30295L10.9036 13.104L7.47288 5.33047C6.75402 3.49606 4.78743 3.09605 3.39654 4.2594Z" fill="black"/>
<path d="M9.48867 0.479816C8.33856 0.502957 6.61162 1.85756 7.38018 3.92603L10.9283 12.2024L12.1751 3.49725C12.4637 1.3342 10.8086 0.335687 9.48867 0.479816Z" fill="black"/>
<path d="M12.7289 3.16522H13.3999C13.3999 3.16522 13.7582 3.16522 13.8069 3.33236C13.5429 3.54561 12.8241 3.57232 12.9196 4.71142L14.0475 12.2012L17.5715 3.90307C18.2923 2.05027 16.7793 0.502894 15.4371 0.45558C15.3745 0.451117 15.3116 0.44751 15.2465 0.44751C14.0418 0.447465 12.6614 1.31335 12.7289 3.16522Z" fill="black"/>
<path d="M17.4288 5.4009L14.0957 13.0812L21.1691 8.25476C22.7996 7.1109 22.5366 5.28218 21.6239 4.37831C21.2413 3.95288 20.5387 3.62421 19.7945 3.62421C18.9153 3.62408 17.9743 4.08533 17.4288 5.4009Z" fill="black"/>
<path d="M20.3772 9.34763L13.7344 13.9367H21.9135C23.5915 13.9367 24.6699 12.2254 24.1905 10.6551C23.8695 9.6681 22.9195 8.89328 21.817 8.89215C21.3529 8.89238 20.8607 9.0306 20.3772 9.34763Z" fill="black"/>
<path d="M3.20731 13.9366H11.2657L4.62133 9.34758C3.08637 8.37213 1.36029 8.94288 0.737189 10.5616C0.20903 12.4146 1.52776 13.9366 3.20731 13.9366Z" fill="black"/>
<path d="M12.1309 20.2155H13.6258C13.9694 20.2368 14.5786 20.5336 14.5786 21.2364C14.5786 21.9714 13.9464 22.268 13.6038 22.3015H12.1309V20.2155ZM12.1081 16.943H13.3385C13.7592 16.9655 14.2565 17.2728 14.2565 17.8436C14.2565 18.4034 13.8805 18.7765 13.394 18.843H12.1081V16.943ZM10.4258 15.5812V23.662H14.3901C15.331 23.662 16.4496 22.7292 16.4496 21.5104C16.4496 20.237 15.6084 19.6116 15.0762 19.3589C15.0762 19.3589 16.0507 18.799 16.0074 17.591C15.9631 15.9659 14.4453 15.5812 13.9249 15.5812H10.4258Z" fill="black"/>
<path d="M4.34504 23.6619V19.0076L9.48341 23.9693V15.5811H7.75674V20.1164L2.61719 15.2525V23.6619H4.34504Z" fill="black"/>
<path d="M16.7266 19.5339C16.7699 22.0894 18.6263 24 21.0129 24C21.5787 24 22.1749 23.894 22.7841 23.6618V22.0153C22.3013 22.3071 21.764 22.4478 21.2376 22.4478C19.7933 22.4478 18.4307 21.3909 18.487 19.4683C18.5844 17.9088 19.8752 16.8319 21.2664 16.8319C21.7758 16.8319 22.2999 16.9771 22.7841 17.2942V15.6918C22.2194 15.4654 21.6582 15.3642 21.1175 15.3642C18.7369 15.3642 16.7723 17.3502 16.7266 19.5339Z" fill="black"/>
</g>
</g>
<defs>
<clipPath id="clip0_3996_9247">
<rect width="25" height="24" fill="white"/>
</clipPath>
</defs>
</svg>
